<svg xmlns="http://www.w3.org/2000/svg" xml:space="preserve" id="Слой_1" x="0" y="0" version="1.1" viewBox="0 0 537.1 118.6">
  <style>
    .st1{fill:#ffb811}
  </style>
	<g id="Text">
    <path fill="#f99f1a" d="M158.2 29.7c0-1.3.1-2.7.4-4a8.6 8.6 0 0 1 4.7-6c1.4-.6 3.1-.9 5.2-.9 1.8 0 3.4.3 4.8.9 1.4.6 2.5 1.4 3.4 2.4a9.7 9.7 0 0 1 1.9 3.8c.4 1.5.5 3 .3 4.8h-7.4l-.7-.6c-.1-1.8-.3-3.2-.5-4.3-.2-1.1-.7-1.6-1.4-1.6-1 0-1.6.5-1.9 1.6s-.4 2.6-.4 4.5v8.4c0 1.9.1 3.4.3 4.5s.7 1.6 1.6 1.6c.5 0 .9-.2 1.2-.5.3-.4.5-.8.6-1.4.1-.6.3-1.2.3-1.9l.2-2 .7-.7h7.5c.2 2.3-.2 4.1-.5 5.1a9 9 0 0 1-1.8 3.5c-.8 1-1.9 1.8-3.3 2.4s-3 .9-4.8.9c-2 0-3.7-.3-5-1a8.5 8.5 0 0 1-4.7-6.1c-.3-1.3-.5-2.7-.5-4.1v-9.3h-.2zm35.5 19.9V19.5h9.7c2.1 0 3.8.2 5.1.6 1.4.4 2.5.9 3.3 1.6s1.4 1.6 1.7 2.6a11.4 11.4 0 0 1-.8 8.6c-.5.8-1.1 1.4-1.8 2-.8.5-1.7 1-2.8 1.3l1.8 2 5.2 11.5h-9.3l-2.8-8.5c-.5-1.4-1.1-2.5-1.7-3.3-.6-.8-1.2-1.2-1.7-1.2h2.3v13l-8.2-.1zm8.2-24.6v6.8h1.7c.5 0 .8-.1 1.1-.4l.6-.9.3-1.2.1-1c0-.8-.2-1.5-.5-2.2s-1-1-1.9-1l-1.4-.1zM228 49.6V19.5h17V26h-8.7v5.6h6.8v5.9h-6.8V43h8.9v6.5H228v.1zm30.9 0V19.5h10.4c2.3 0 4.1.4 5.5 1.1s2.4 1.8 3.2 3.1a13 13 0 0 1 1.5 4.8 55.1 55.1 0 0 1 0 12.4 13 13 0 0 1-1.4 4.8 7.5 7.5 0 0 1-3.1 3c-1.4.7-3.2 1-5.5 1l-10.6-.1zm8.3-24.6v19.1h2c.7 0 1.3-.3 1.6-.8.4-.5.6-1.2.7-2.1s.2-1.9.1-3.1l-.1-3.6.1-3.7-.1-3c-.1-.9-.3-1.5-.6-2s-.8-.8-1.4-.8h-2.3zm27.4 24.6V19.5h8.3v30.1h-8.3zm27.3 0V26.1h-5.8v-6.6h20V26h-5.9v23.5h-8.3v.1zm27.5-19.9c0-1.3.1-2.7.4-4a8.6 8.6 0 0 1 4.7-6c1.4-.6 3.1-.9 5.2-.9 1.8 0 3.4.3 4.8.9 1.4.6 2.5 1.4 3.4 2.4.9 1.1 1.5 2.3 1.9 3.8s.5 3 .3 4.8h-7.5l-.7-.6c-.1-1.8-.3-3.2-.5-4.3-.2-1.1-.7-1.6-1.4-1.6-1 0-1.6.5-1.9 1.6s-.4 2.6-.4 4.5v8.4c0 1.9.1 3.4.3 4.5.2 1.1.7 1.6 1.7 1.6.5 0 .9-.2 1.2-.5l.7-1.4c.1-.6.3-1.2.3-1.9l.2-2 .7-.7h7.6c.2 2.3-.2 4.1-.6 5.1a9 9 0 0 1-1.8 3.5c-.8 1-1.9 1.8-3.3 2.4-1.3.6-3 .9-4.8.9-2 0-3.7-.3-5-1a8.5 8.5 0 0 1-4.7-6.1c-.3-1.3-.5-2.7-.5-4.1v-9.3h-.3zm35.5 19.9V19.5h8.3V43h7.9v6.5h-16.2v.1zm40.2-30.8c2.3 0 4.2.4 5.6 1.1 1.4.8 2.5 1.9 3.3 3.3s1.3 3.1 1.5 5a60 60 0 0 1 .1 12.6 14 14 0 0 1-1.4 4.9 6.8 6.8 0 0 1-3.3 3.2c-1.4.8-3.4 1.2-5.8 1.2s-4.3-.4-5.7-1.2c-1.4-.8-2.4-1.9-3.1-3.3s-1.1-3-1.3-4.9a58 58 0 0 1 0-12.5c.2-1.9.7-3.6 1.4-5a7.6 7.6 0 0 1 3.1-3.3c1.4-.7 3.3-1.1 5.6-1.1zm2.5 15.7.1-3.9-.1-3.3c-.1-.9-.3-1.7-.6-2.2-.3-.6-.8-.8-1.5-.8s-1.3.3-1.7.8c-.4.5-.7 1.3-.8 2.2l-.3 3.3v7.7c0 1.2 0 2.2.2 3.2.1.9.4 1.7.8 2.2s1 .8 1.8.8 1.3-.3 1.7-.8c.3-.5.5-1.2.6-2.1s.1-1.9 0-3.2a42 42 0 0 1-.2-3.9zM459 27c0 .6.2 1.2.5 1.7s.8 1 1.3 1.4l1.8 1.3 2.1 1.4 2 1.5 1.7 1.8a9 9 0 0 1-.2 10.8c-.7.9-1.7 1.6-2.9 2.2-1.2.6-2.9.9-4.8.9-1.7 0-3.2-.3-4.5-.8s-2.4-1.3-3.2-2.3-1.4-2.2-1.7-3.5c-.3-1.4-.4-2.9-.2-4.5h7.6l.7.7v3c0 .6.1 1.1.3 1.5.2.4.5.6.9.6l.9-.2.5-.6.2-.8v-.8c0-.6-.2-1.2-.5-1.7s-.7-1-1.2-1.4l-1.7-1.3-2-1.2a13.7 13.7 0 0 1-3.9-3.4c-.5-.7-1-1.5-1.3-2.4s-.5-1.9-.5-3.1c0-1.3.2-2.5.5-3.5.4-1.1.9-2 1.7-2.7.8-.8 1.8-1.4 3-1.8s2.7-.6 4.4-.6c2 0 3.7.3 4.9 1a8 8 0 0 1 2.9 2.5c.7 1 1.1 2.2 1.3 3.4.2 1.3.2 2.5.1 3.6l-6.9 1-1-.6c.2-1.7.2-3.1 0-4.1s-.7-1.5-1.5-1.5c-.6 0-.9.2-1.2.7L459 27zm25.8 22.6V19.5h17V26h-8.7v5.6h6.8v5.9h-6.8V43h8.9v6.5h-17.2v.1zm30.9 0V19.5h9.7c2.1 0 3.8.2 5.1.6 1.4.4 2.5.9 3.3 1.6s1.4 1.6 1.7 2.6a11.4 11.4 0 0 1-.8 8.6c-.5.8-1.1 1.4-1.8 2-.8.5-1.7 1-2.8 1.3l1.8 2 5.2 11.5h-9.3l-2.8-8.5c-.5-1.4-1.1-2.5-1.7-3.3-.6-.8-1.2-1.2-1.7-1.2h2.3v13l-8.2-.1zM524 25v6.8h1.7c.5 0 .8-.1 1.1-.4l.6-.9.3-1.2.1-1c0-.8-.2-1.5-.5-2.2s-1-1-1.9-1L524 25z"/>
		<path d="m176 97.6 1.9-10.1-5 14.7h-3.6l-4.1-11.8.5 7.3v4.5h-7V72.1h7.6l5 12.8-.1 3.8 1.1-4.1 4.1-12.4h7.9v30.1H176v-4.7zm22.5 4.6V72.1h8.3v30.1h-8.3zm28.7-30.1h8.7l8.6 30.1h-8.2l-1-3.5h-6.7l-.7 3.5H220l7.2-30.1zm2.5 21.3h4.1l-.5-1.7-2-10.9-1.6 10.9v1.7zm45.4 4.2 1.9-10.1-5 14.7h-3.7l-4.1-11.8.5 7.3v4.5h-7V72.1h7.6l5 12.8-.1 3.8 1.1-4.1 4.2-12.4h7.8v30.1H275v-4.7h.1zm22.5 4.6V72.1h8.3v30.1h-8.3z" class="st1"/>
  </g>
	<g id="Отдельно_лого">
    <path fill="#f18023" d="M100 50.5h18.7a49.4 49.4 0 0 0-88.5-21.2A46.1 46.1 0 0 1 100 50.5z"/>
		<path d="M77 65.2v14.6h17.2a58.7 58.7 0 0 1-24.1 18.7c-6.3 2-12.9 2.2-12.9 2.2h-2a50 50 0 0 1-39.9-79.9 58.4 58.4 0 1 0 88.8 75.8v12.5h14.4V65.2H77z" class="st1"/>
		<path fill="#f49f1f" d="M18.8 51.9A48 48 0 0 1 82.3 6.5 48 48 0 0 0 10 48.2a48.3 48.3 0 0 0 33.7 46 48.7 48.7 0 0 1-24.9-42.3z"/>
  </g>
</svg>