<svg xmlns="http://www.w3.org/2000/svg" xml:space="preserve" id="Слой_1" x="0" y="0" version="1.1" viewBox="0 0 378.9 231.4">
  <style>
    .st1{fill:#ffb811}
  </style>
    <g id="Text">
    <path fill="#f99f1a" d="M0 157.4c0-1.3.1-2.7.4-4a8.63 8.63 0 0 1 4.7-6c1.4-.6 3.1-.9 5.2-.9 1.8 0 3.4.3 4.8.9 1.4.6 2.5 1.4 3.4 2.4.9 1.1 1.5 2.3 1.9 3.8s.5 3 .3 4.8h-7.4l-.7-.6c-.1-1.8-.3-3.2-.5-4.3-.2-1.1-.7-1.6-1.4-1.6-1 0-1.6.5-1.9 1.6s-.4 2.6-.4 4.5v8.4c0 1.9.1 3.4.3 4.5s.7 1.6 1.6 1.6c.5 0 .9-.2 1.2-.5.3-.4.5-.8.6-1.4s.3-1.2.3-1.9c.1-.7.1-1.4.2-2 .2-.2.5-.4.7-.7h7.5c.2 2.3-.2 4.1-.5 5.1s-.7 2.2-1.8 3.5c-.8 1-1.9 1.8-3.3 2.4s-3 .9-4.8.9c-2 0-3.7-.3-5-1a8.46 8.46 0 0 1-4.7-6.1c-.3-1.3-.5-2.7-.5-4.1v-9.3H0zm35.5 19.9v-30.1h9.7c2.1 0 3.8.2 5.1.6 1.4.4 2.5.9 3.3 1.6s1.4 1.6 1.7 2.6c.3 1 .5 2.1.5 3.3 0 1-.1 1.9-.3 2.8a7.71 7.71 0 0 1-2.8 4.5c-.8.5-1.7 1-2.8 1.3l1.8 2 5.2 11.5h-9.3l-2.8-8.5c-.5-1.4-1.1-2.5-1.7-3.3s-1.2-1.2-1.7-1.2h2.3v13l-8.2-.1zm8.2-24.6v6.8h1.7c.5 0 .8-.1 1.1-.4.3-.3.5-.6.6-.9s.3-.8.3-1.2c.1-.4.1-.8.1-1 0-.8-.2-1.5-.5-2.2s-1-1-1.9-1l-1.4-.1zm26.1 24.6v-30.1h17v6.5h-8.7v5.6h6.8v5.9h-6.8v5.5H87v6.5H69.8v.1zm30.9 0v-30.1h10.4c2.3 0 4.1.4 5.5 1.1s2.4 1.8 3.2 3.1c.8 1.3 1.2 2.9 1.5 4.8.2 1.8.4 3.9.4 6.1 0 2.3-.1 4.4-.4 6.3-.2 1.9-.7 3.5-1.4 4.8s-1.8 2.3-3.1 3c-1.4.7-3.2 1-5.5 1l-10.6-.1zm8.3-24.6v19.1h2c.7 0 1.3-.3 1.6-.8.4-.5.6-1.2.7-2.1.1-.9.2-1.9.1-3.1 0-1.2-.1-2.4-.1-3.6 0-1.3 0-2.5.1-3.7 0-1.2 0-2.2-.1-3-.1-.9-.3-1.5-.6-2s-.8-.8-1.4-.8H109zm27.4 24.6v-30.1h8.3v30.1h-8.3zm27.3 0v-23.5h-5.8v-6.6h20v6.5H172v23.5h-8.3v.1zm27.5-19.9c0-1.3.1-2.7.4-4a8.63 8.63 0 0 1 4.7-6c1.4-.6 3.1-.9 5.2-.9 1.8 0 3.4.3 4.8.9 1.4.6 2.5 1.4 3.4 2.4.9 1.1 1.5 2.3 1.9 3.8s.5 3 .3 4.8h-7.5l-.7-.6c-.1-1.8-.3-3.2-.5-4.3-.2-1.1-.7-1.6-1.4-1.6-1 0-1.6.5-1.9 1.6s-.4 2.6-.4 4.5v8.4c0 1.9.1 3.4.3 4.5.2 1.1.7 1.6 1.7 1.6.5 0 .9-.2 1.2-.5.3-.4.5-.8.7-1.4.1-.6.3-1.2.3-1.9.1-.7.1-1.4.2-2l.7-.7h7.6c.2 2.3-.2 4.1-.6 5.1-.3 1-.7 2.2-1.8 3.5-.8 1-1.9 1.8-3.3 2.4-1.3.6-3 .9-4.8.9-2 0-3.7-.3-5-1-1.3-.7-2.4-1.5-3.1-2.5-.8-1-1.3-2.2-1.6-3.6-.3-1.3-.5-2.7-.5-4.1v-9.3h-.3zm35.5 19.9v-30.1h8.3v23.5h7.9v6.5h-16.2v.1zm40.2-30.8c2.3 0 4.2.4 5.6 1.1 1.4.8 2.5 1.9 3.3 3.3s1.3 3.1 1.5 5c.3 1.9.4 4.1.4 6.4 0 2.2-.1 4.3-.3 6.2-.2 1.9-.7 3.5-1.4 4.9-.7 1.4-1.8 2.5-3.3 3.2-1.4.8-3.4 1.2-5.8 1.2s-4.3-.4-5.7-1.2c-1.4-.8-2.4-1.9-3.1-3.3s-1.1-3-1.3-4.9a63.96 63.96 0 0 1 0-12.5c.2-1.9.7-3.6 1.4-5a7.6 7.6 0 0 1 3.1-3.3c1.4-.7 3.3-1.1 5.6-1.1zm2.5 15.7c0-1.4 0-2.7.1-3.9 0-1.3 0-2.3-.1-3.3-.1-.9-.3-1.7-.6-2.2-.3-.6-.8-.8-1.5-.8s-1.3.3-1.7.8c-.4.5-.7 1.3-.8 2.2-.1.9-.2 2-.3 3.3s0 2.6 0 4v3.7c0 1.2 0 2.2.2 3.2.1.9.4 1.7.8 2.2s1 .8 1.8.8 1.3-.3 1.7-.8c.3-.5.5-1.2.6-2.1s.1-1.9 0-3.2c-.1-1.1-.2-2.4-.2-3.9zm31.4-7.5c0 .6.2 1.2.5 1.7s.8 1 1.3 1.4 1.1.9 1.8 1.3 1.4.9 2.1 1.4 1.4 1 2 1.5 1.2 1.2 1.7 1.8a8.96 8.96 0 0 1 1.7 5.3 8.48 8.48 0 0 1-1.9 5.5c-.7.9-1.7 1.6-2.9 2.2-1.2.6-2.9.9-4.8.9-1.7 0-3.2-.3-4.5-.8s-2.4-1.3-3.2-2.3-1.4-2.2-1.7-3.5c-.3-1.4-.4-2.9-.2-4.5h7.6l.7.7v3c0 .6.1 1.1.3 1.5.2.4.5.6.9.6s.7-.1.9-.2c.2-.2.4-.4.5-.6s.2-.5.2-.8v-.8c0-.6-.2-1.2-.5-1.7s-.7-1-1.2-1.4-1.1-.9-1.7-1.3-1.3-.8-2-1.2c-.7-.4-1.4-.9-2.1-1.5-.7-.5-1.3-1.2-1.8-1.9s-1-1.5-1.3-2.4-.5-1.9-.5-3.1c0-1.3.2-2.5.5-3.5.4-1.1.9-2 1.7-2.7.8-.8 1.8-1.4 3-1.8s2.7-.6 4.4-.6c2 0 3.7.3 4.9 1a8 8 0 0 1 2.9 2.5c.7 1 1.1 2.2 1.3 3.4.2 1.3.2 2.5.1 3.6l-6.9 1-1-.6c.2-1.7.2-3.1 0-4.1s-.7-1.5-1.5-1.5c-.6 0-.9.2-1.2.7 0 0-.1.8-.1 1.8zm25.8 22.6v-30.1h17v6.5h-8.7v5.6h6.8v5.9h-6.8v5.5h8.9v6.5h-17.2v.1zm30.9 0v-30.1h9.7c2.1 0 3.8.2 5.1.6 1.4.4 2.5.9 3.3 1.6s1.4 1.6 1.7 2.6.5 2.1.5 3.3c0 1-.1 1.9-.3 2.8s-.5 1.7-1 2.5-1.1 1.4-1.8 2c-.8.5-1.7 1-2.8 1.3l1.8 2 5.2 11.5h-9.3l-2.8-8.5c-.5-1.4-1.1-2.5-1.7-3.3s-1.2-1.2-1.7-1.2h2.3v13l-8.2-.1zm8.3-24.6v6.8h1.7c.5 0 .8-.1 1.1-.4.3-.3.5-.6.6-.9.2-.4.3-.8.3-1.2 0-.4.1-.8.1-1 0-.8-.2-1.5-.5-2.2s-1-1-1.9-1l-1.4-.1z"/>
        <path d="m133.4 226.7 1.9-10.1-5 14.7h-3.6l-4.1-11.8.5 7.3v4.5h-7v-30.1h7.6l5 12.8-.1 3.8 1.1-4.1 4.1-12.4h7.9v30.1h-8.3v-4.7zm22.5 4.6v-30.1h8.3v30.1h-8.3zm28.7-30.1h8.7l8.6 30.1h-8.2l-1-3.5H186l-.7 3.5h-7.9l7.2-30.1zm2.5 21.3h4.1l-.5-1.7-2-10.9-1.6 10.9v1.7zm45.4 4.2 1.9-10.1-5 14.7h-3.7l-4.1-11.8.5 7.3v4.5h-7v-30.1h7.6l5 12.8-.1 3.8 1.1-4.1 4.2-12.4h7.8v30.1h-8.3v-4.7h.1zm22.5 4.6v-30.1h8.3v30.1H255z" class="st1"/>
  </g>
    <g id="Отдельно_лого">
    <path fill="#f18023" d="M229.1 50.5h18.7A49.37 49.37 0 0 0 199.1 9a49 49 0 0 0-39.8 20.3c7.5-5.4 16.8-8.5 26.7-8.5 19.6 0 36.5 12.3 43.1 29.7z"/>
        <path d="M206.1 65.2v14.6h17.2c-8.9 11.1-18.8 16.9-24.1 18.7-6.3 2-12.9 2.2-12.9 2.2h-2a49.91 49.91 0 0 1-39.9-79.9 58.4 58.4 0 1 0 88.8 75.8v12.5h14.4V65.2h-41.5z" class="st1"/>
        <path fill="#f49f1f" d="M147.9 51.9c0-26.5 21.5-48 48-48 5.4 0 10.6.9 15.5 2.6A48 48 0 0 0 187.3 0c-26.6 0-48.2 21.6-48.2 48.2a48.3 48.3 0 0 0 33.7 46c-14.7-8.3-24.9-24.1-24.9-42.3z"/>
  </g>
</svg>