<?xml version="1.0" standalone="no"?>
<!DOCTYPE svg PUBLIC "-//W3C//DTD SVG 20010904//EN"
 "http://www.w3.org/TR/2001/REC-SVG-20010904/DTD/svg10.dtd">
<svg version="1.0" xmlns="http://www.w3.org/2000/svg"
 width="700.000000pt" height="700.000000pt" viewBox="0 0 700.000000 700.000000"
 preserveAspectRatio="xMidYMid meet">
<metadata>
Created by potrace 1.14, written by Peter Selinger 2001-2017
</metadata>
<g transform="translate(0.000000,700.000000) scale(0.100000,-0.100000)"
fill="#000000" stroke="none">
<path d="M3149 6996 c-2 -2 -26 -6 -54 -10 -27 -3 -68 -8 -90 -11 -182 -23
-487 -107 -675 -187 -390 -164 -786 -450 -1041 -753 -19 -22 -39 -44 -45 -50
-21 -19 -181 -239 -224 -310 -85 -138 -157 -279 -216 -422 -34 -81 -107 -294
-119 -346 -27 -119 -56 -260 -60 -297 -3 -25 -8 -52 -10 -60 -12 -46 -20 -200
-19 -390 1 -266 7 -333 50 -569 26 -136 92 -351 156 -511 212 -519 559 -948
1041 -1284 52 -36 98 -66 102 -66 4 0 19 -8 33 -19 46 -32 253 -138 347 -177
87 -35 216 -84 224 -84 2 0 -65 46 -150 103 -85 56 -165 111 -178 122 -13 11
-56 47 -95 79 -121 101 -294 280 -397 411 -144 183 -221 309 -359 586 -76 152
-166 435 -209 655 -19 96 -22 116 -38 254 -11 86 -10 476 0 565 15 120 24 184
37 245 5 25 12 60 15 79 3 19 8 37 10 41 2 4 6 20 9 36 30 165 194 566 307
749 267 432 558 725 981 988 174 108 494 248 668 293 8 2 58 15 110 28 95 25
105 27 190 41 25 4 52 9 60 10 192 36 575 40 800 9 31 -5 63 -10 179 -29 19
-3 37 -7 40 -9 3 -2 22 -7 41 -10 34 -5 214 -55 255 -71 33 -12 -41 33 -116
71 -167 84 -402 175 -540 209 -98 25 -229 54 -274 60 -76 12 -100 15 -135 22
-37 6 -604 15 -611 9z"/>
<path d="M3988 6455 c-2 -2 -43 -5 -93 -9 -49 -3 -101 -8 -115 -10 -14 -2 -47
-7 -75 -11 -71 -8 -144 -23 -265 -52 -596 -142 -1145 -482 -1534 -948 -50 -60
-98 -119 -106 -130 -15 -19 -14 -19 10 -3 116 78 419 248 444 248 3 0 25 9 49
20 46 21 146 61 162 64 6 2 48 14 95 29 352 109 756 146 1120 101 816 -100
1540 -560 1979 -1257 68 -107 176 -318 212 -414 l24 -63 552 0 c304 0 553 2
553 4 0 4 -39 194 -45 216 -89 353 -249 701 -457 992 -59 83 -49 71 -134 173
-176 214 -469 474 -659 587 -27 16 -79 47 -115 69 -78 47 -301 157 -385 188
-33 13 -69 27 -80 31 -87 37 -390 117 -510 135 -22 3 -47 7 -55 10 -8 2 -42 6
-75 10 -33 3 -80 8 -105 12 -43 5 -387 12 -392 8z"/>
<path d="M773 5617 c-54 -67 -120 -156 -148 -197 -27 -41 -52 -77 -55 -80 -3
-3 -10 -14 -17 -25 -7 -11 -30 -50 -52 -87 -61 -99 -153 -280 -201 -393 -23
-55 -48 -113 -55 -130 -78 -184 -172 -552 -200 -785 -3 -25 -8 -54 -10 -65
-10 -50 -19 -234 -20 -385 0 -292 20 -477 78 -740 11 -52 22 -99 23 -105 1 -5
9 -37 18 -70 9 -33 18 -67 20 -75 9 -35 72 -213 107 -303 50 -125 146 -324
204 -422 25 -42 45 -78 45 -81 0 -2 37 -59 82 -126 186 -277 404 -519 674
-748 38 -32 206 -158 264 -197 238 -161 565 -321 850 -417 83 -28 326 -92 380
-101 19 -3 42 -8 50 -10 8 -2 35 -7 60 -10 25 -3 52 -8 60 -10 8 -2 39 -7 69
-10 30 -4 63 -8 74 -11 90 -17 467 -24 632 -11 234 18 445 54 660 114 50 14
97 26 105 28 8 2 56 18 105 35 588 208 1083 543 1483 1003 l77 88 3 -365 2
-366 425 0 425 0 0 1295 0 1295 -1225 0 -1225 0 0 -430 0 -430 506 -2 506 -3
-32 -40 c-187 -238 -420 -465 -655 -639 -49 -36 -94 -70 -100 -74 -164 -121
-516 -308 -675 -358 -93 -29 -302 -74 -415 -88 -22 -3 -58 -8 -80 -11 -101
-13 -160 -16 -290 -17 -130 0 -332 9 -374 17 -10 2 -42 6 -72 10 -30 4 -76 11
-104 17 -27 5 -63 12 -80 14 -24 4 -134 32 -235 59 -308 82 -774 323 -1001
517 -15 13 -44 37 -65 53 -36 28 -140 124 -204 187 -127 126 -349 406 -406
513 -5 11 -17 31 -26 45 -70 108 -181 340 -236 490 -61 165 -104 323 -137 500
-3 14 -7 36 -9 50 -3 14 -8 48 -11 75 -4 28 -8 61 -10 75 -16 127 -23 460 -11
549 3 20 8 63 11 96 6 61 19 155 30 210 21 112 30 150 51 230 90 330 230 636
410 898 29 42 51 77 49 77 -3 0 -49 -55 -102 -123z"/>
</g>
</svg>
